<?xml version="1.0" encoding="UTF-8" standalone="no"?>
<svg width="11px" height="13px" viewBox="0 0 11 13" version="1.1" xmlns="http://www.w3.org/2000/svg" xmlns:xlink="http://www.w3.org/1999/xlink">
    <!-- Generator: Sketch 50.2 (55047) - http://www.bohemiancoding.com/sketch -->
    <title>Artboard 1</title>
    <desc>Created with Sketch.</desc>
    <defs>
        <polygon id="path-1" points="0.4135 0.321 6.3395 0.321 6.3395 6.2461 0.4135 6.2461"></polygon>
    </defs>
    <g id="Artboard-1" stroke="none" stroke-width="1" fill="none" fill-rule="evenodd">
        <g id="Group-3" transform="translate(2.000000, -0.320700)">
            <mask id="mask-2" fill="white">
                <use xlink:href="#path-1"></use>
            </mask>
            <g id="Clip-2"></g>
            <path d="M6.3395,3.2831 C6.3395,4.9201 5.0125,6.2461 3.3765,6.2461 C1.7405,6.2461 0.4135,4.9201 0.4135,3.2831 C0.4135,1.6471 1.7405,0.3201 3.3765,0.3201 C5.0125,0.3201 6.3395,1.6471 6.3395,3.2831" id="Fill-1" fill="#6E7686" mask="url(#mask-2)"></path>
        </g>
        <path d="M9.8405,12.6792 L1.0005,12.6792 C0.4475,12.6792 0.0005,12.2322 0.0005,11.6792 L0.0005,10.4912 C0.0005,8.8352 1.3425,7.4922 3.0005,7.4922 L7.8405,7.4922 C9.4975,7.4922 10.8405,8.8352 10.8405,10.4912 L10.8405,11.6792 C10.8405,12.2322 10.3925,12.6792 9.8405,12.6792" id="Fill-4" fill="#6E7686"></path>
    </g>
</svg>