<svg xmlns="http://www.w3.org/2000/svg" viewBox="0 0 184.15 121.07"><defs><style>.cls-1{fill:#b9e444;}.cls-2{fill:#77c04e;}.cls-3,.cls-5,.cls-6,.cls-7{fill:none;}.cls-3{stroke:#707584;stroke-linecap:round;stroke-linejoin:round;stroke-width:3.22px;}.cls-4{font-size:12px;font-family:MyriadPro-Regular, Myriad Pro;}.cls-5{stroke:#df641d;}.cls-5,.cls-6,.cls-7{stroke-miterlimit:10;stroke-width:5.49px;}.cls-6{stroke:#77c04e;}.cls-7{stroke:#b9e444;}.cls-8{fill:#e9edf2;}</style></defs><title>Asset 5</title><g id="Layer_2" data-name="Layer 2"><g id="Layer_1-2" data-name="Layer 1"><path class="cls-1" d="M118.14,25.62A12.77,12.77,0,0,0,100.8,20.7c-4.44,2.48-7,7.19-8.36,12.07-2.8-4.23-6.62-8-11.6-9h0a12.74,12.74,0,1,0-5.12,25L94.05,52.5h.06a.63.63,0,0,0,.19,0l.15,0,.2,0h.5l.33,0h0l.32-.07.13,0,.21-.06.14-.06.18-.07a.61.61,0,0,0,.14-.07l.18-.08,0,0L113.21,43A12.75,12.75,0,0,0,118.14,25.62ZM77.36,40.72a4.55,4.55,0,1,1,1.83-8.92c4,.83,7.34,6.34,9.45,11.23Zm31.86-4.92-10,5.61c.53-5.3,2-11.55,5.62-13.56a4.55,4.55,0,1,1,4.43,7.95Z"/><rect class="cls-1" x="65.21" y="50.38" width="68.36" height="53.48" transform="translate(-10.59 16.05) rotate(-8.77)"/><rect class="cls-2" x="56.24" y="46.91" width="79.09" height="13.67" transform="translate(-7.07 15.23) rotate(-8.77)"/><path class="cls-3" d="M81.62,68.33c6.61.1,12.07,4.59,12.07,4.59A39.83,39.83,0,0,0,80.13,75"/><path class="cls-3" d="M113.67,63.39c-6.26,2.09-10.12,8-10.12,8a39.76,39.76,0,0,1,13.56-2.09"/><text class="cls-4" transform="translate(110.13 85.67)">L</text><path class="cls-5" d="M17.67,57.18a8.56,8.56,0,0,0-7.46-8.31,8.55,8.55,0,0,1-7.46-8.31"/><path class="cls-6" d="M23,95.79a8.55,8.55,0,0,1,7.5-8.28A8.55,8.55,0,0,0,38,79.24"/><path class="cls-6" d="M129.1.45A8.55,8.55,0,0,0,134.91,10a8.55,8.55,0,0,1,5.81,9.54"/><path class="cls-7" d="M33.7,33.15A23.58,23.58,0,0,0,46.77,16.29"/><path class="cls-7" d="M181.49,25.53a23.58,23.58,0,0,1-14.23,15.89"/><path class="cls-5" d="M161.58,75.08A23.61,23.61,0,0,0,181,83.91"/><ellipse class="cls-8" cx="101.82" cy="117.97" rx="29.88" ry="3.1"/></g></g></svg>