<svg xmlns="http://www.w3.org/2000/svg" viewBox="0 0 156.14 24.15"><defs><style>.cls-1{fill:#77c04e;}.cls-2{fill:#b9e444;}.cls-3{fill:#707584;}</style></defs><title>Asset 1</title><g id="Layer_2" data-name="Layer 2"><g id="Layer_1-2" data-name="Layer 1"><path class="cls-1" d="M36.07,19c-5.9,3-10.3,1.6-15,.16C17.25,18,13,16.68,7.75,17.93h0a19,19,0,0,0-3,1h0l4.13,2c4.19-.91,7.67.17,11.31,1.29A29.76,29.76,0,0,0,29.09,24a18.38,18.38,0,0,0,8.41-2.11Z"/><path class="cls-2" d="M0,6,4.73,18.92h0a19,19,0,0,1,3-1h0L4.11,8Z"/><polygon class="cls-1" points="2.54 3.71 14.65 9.5 10.3 10.95 0 6.03 2.54 3.71"/><polygon class="cls-2" points="17.83 3.43 14.65 9.5 11.77 8.13 16.03 0 17.83 3.43"/><polygon class="cls-1" points="19.63 0 16.03 0 21.01 9.5 25.36 10.95 19.63 0"/><polygon class="cls-2" points="33.12 3.71 31.55 7.99 25.36 10.95 23.88 8.13 33.12 3.71"/><polygon class="cls-1" points="31.34 17.79 35.66 6.03 33.12 3.71 28.36 16.7 31.34 17.79"/><path class="cls-3" d="M100.27,9.26c-2.1-.75-2.71-1.34-2.71-2.23,0-.5.49-1.39,1.92-1.39a4,4,0,0,1,3,1.7L105,5.64a6.76,6.76,0,0,0-5.33-2.93c-3.16,0-5.24,2.2-5.24,4.32,0,3,2.7,4.19,4.71,4.92,2.27.84,2.94,1.23,2.94,2.22,0,.83-.83,1.65-2.33,1.65a5.11,5.11,0,0,1-3.83-1.92l-2.08,2.16a8.47,8.47,0,0,0,5.79,2.69c3.8,0,5.63-2.4,5.63-4.45C105.21,11,102.35,10,100.27,9.26Z"/><rect class="cls-3" x="58.37" y="6.94" width="3.18" height="11.43"/><circle class="cls-3" cx="59.96" cy="2.81" r="1.96"/><path class="cls-3" d="M115.63,7v6.57h0a2.43,2.43,0,0,1-4.85,0h0V7H107.6v6.57h0a5.61,5.61,0,0,0,11.2,0h0V7Z"/><path class="cls-3" d="M149.79,6.58a6.18,6.18,0,0,0-6.35,6.1,6.36,6.36,0,0,0,12.7,0A6.18,6.18,0,0,0,149.79,6.58Zm0,9.26a3.08,3.08,0,0,1-3.17-3.16,3.17,3.17,0,0,1,6.33,0A3.07,3.07,0,0,1,149.79,15.84Z"/><path class="cls-3" d="M75.88,11.32a4.77,4.77,0,0,0-4.76-4.77A6,6,0,0,0,67.6,7.7V6.94H64.67V18.36h3.18V11.92a2.43,2.43,0,1,1,4.85,0v6.44h3.18v-7Z"/><path class="cls-3" d="M136.33,6.58A6,6,0,0,0,132,8.4a4.74,4.74,0,0,0-3.74-1.82,6,6,0,0,0-3.52,1.15V7h-2.93V18.39H125V12a2.43,2.43,0,1,1,4.85,0v6.44h3.18V12a2.43,2.43,0,1,1,4.85,0v6.44h3.18v-7A4.77,4.77,0,0,0,136.33,6.58Z"/><polygon class="cls-3" points="55.65 3.09 51.2 3.09 45.73 8.72 45.73 3.09 42.54 3.09 42.54 18.36 45.73 18.36 45.73 13.28 47.57 11.39 52.8 18.36 56.78 18.36 49.81 9.08 55.65 3.09"/><path class="cls-3" d="M91.15,10.43V6.94H88.22V8.06a5.78,5.78,0,0,0-3.89-1.51,6,6,0,0,0-5.92,6.1,6,6,0,0,0,5.92,6.1A5.85,5.85,0,0,0,88,17.46v.42a3.31,3.31,0,0,1-3.62,3.33,5.33,5.33,0,0,1-3.48-1.37L78.82,22a8.54,8.54,0,0,0,5.53,2.12c3.94,0,6.8-2.64,6.8-6.27V10.43Zm-6.37,5.38a3.16,3.16,0,1,1,3.16-3.16A3.17,3.17,0,0,1,84.78,15.81Z"/></g></g></svg>