<?xml version="1.0" encoding="UTF-8" standalone="no"?>
<svg width="22px" height="18px" viewBox="0 0 22 18" version="1.1" xmlns="http://www.w3.org/2000/svg" xmlns:xlink="http://www.w3.org/1999/xlink">
    <!-- Generator: Sketch 50.2 (55047) - http://www.bohemiancoding.com/sketch -->
    <title>Artboard 1</title>
    <desc>Created with Sketch.</desc>
    <defs>
        <polygon id="path-1" points="0.000314285714 0.356218182 21.3462857 0.356218182 21.3462857 11.9998545 0.000314285714 11.9998545"></polygon>
        <polygon id="path-3" points="0.000157142857 0.8604 21.3462857 0.8604 21.3462857 8.572275 0.000157142857 8.572275"></polygon>
    </defs>
    <g id="Artboard-1" stroke="none" stroke-width="1" fill="none" fill-rule="evenodd">
        <g id="Group">
            <g id="Group-3" transform="translate(0.000000, 6.000000)">
                <mask id="mask-2" fill="white">
                    <use xlink:href="#path-1"></use>
                </mask>
                <g id="Clip-2"></g>
                <path d="M19.9024571,11.9998545 L1.44445714,11.9998545 C0.646171429,11.9998545 0.000314285714,11.4020364 0.000314285714,10.6631273 L0.000314285714,0.356218182 L9.70545714,6.78530909 C10.2837429,7.16785455 11.0631714,7.16785455 11.6414571,6.78530909 L21.3466,0.356218182 L21.3466,10.6631273 C21.3466,11.4020364 20.7007429,11.9998545 19.9024571,11.9998545" id="Fill-1" fill="#6E7686" mask="url(#mask-2)"></path>
            </g>
            <g id="Group-6">
                <mask id="mask-4" fill="white">
                    <use xlink:href="#path-3"></use>
                </mask>
                <g id="Clip-5"></g>
                <path d="M0.000157142857,1.6464 L9.7053,8.2764 C10.2835857,8.6709 11.0630143,8.6709 11.6413,8.2764 L21.3464429,1.6464 C21.3464429,1.2129 20.9771571,0.8604 20.5230143,0.8604 L0.823585714,0.8604 C0.369442857,0.8604 0.000157142857,1.2129 0.000157142857,1.6464" id="Fill-4" fill="#6E7686" mask="url(#mask-4)"></path>
            </g>
        </g>
    </g>
</svg>