<?xml version="1.0" encoding="UTF-8" standalone="no"?>
<svg width="20px" height="20px" viewBox="0 0 20 20" version="1.1" xmlns="http://www.w3.org/2000/svg" xmlns:xlink="http://www.w3.org/1999/xlink">
    <!-- Generator: Sketch 50 (54983) - http://www.bohemiancoding.com/sketch -->
    <title>Link</title>
    <desc>Created with Sketch.</desc>
    <defs></defs>
    <g id="Page-1" stroke="none" stroke-width="1" fill="none" fill-rule="evenodd">
        <g id="Link" transform="translate(10.000000, 10.000000) scale(-1, 1) rotate(90.000000) translate(-10.000000, -10.000000) " fill="#525A68" fill-rule="nonzero">
            <g id="Group">
                <path d="M11.1746032,13.2142857 C9.84126984,13.2142857 8.50793651,12.6428571 7.55555556,11.6904762 C6.22222222,10.3571429 5.74603175,8.64285714 6.12698413,6.92857143 C6.12698413,6.35714286 6.6031746,5.97619048 7.07936508,6.16666667 C7.55555556,6.26190476 7.93650794,6.73809524 7.84126984,7.30952381 C7.65079365,8.35714286 7.93650794,9.5 8.6984127,10.2619048 C9.55555556,11.1190476 10.6984127,11.4047619 11.7460317,11.2142857 C12.3174603,11.1190476 12.8888889,10.8333333 13.2698413,10.452381 C13.3650794,10.3571429 13.3650794,10.3571429 13.4603175,10.3571429 L16.2222222,7.5952381 C17.4603175,6.35714286 17.4603175,4.26190476 16.2222222,2.92857143 C14.8888889,1.5952381 12.7936508,1.5952381 11.4603175,2.83333333 L10.031746,4.26190476 L9.93650794,4.35714286 C9.65079365,4.73809524 8.98412698,4.83333333 8.6031746,4.54761905 C8.22222222,4.26190476 8.12698413,3.5952381 8.41269841,3.21428571 C8.6031746,3.02380952 8.6984127,2.92857143 8.79365079,2.92857143 L10.2222222,1.5 C12.2222222,-0.5 15.5555556,-0.5 17.5555556,1.5 C19.6507937,3.5952381 19.6507937,6.83333333 17.6507937,8.92857143 L14.8888889,11.6904762 L14.6031746,11.9761905 C13.9365079,12.547619 13.1746032,12.9285714 12.2222222,13.1190476 C11.8412698,13.1190476 11.4603175,13.2142857 11.1746032,13.2142857 Z" id="Shape"></path>
                <path d="M5.29782671,19.1643 C3.96449337,19.1643 2.63116004,18.6881095 1.58354099,17.6404904 C-0.511697102,15.5452524 -0.511697102,12.3071571 1.4883029,10.211919 L4.25020766,7.45001426 C4.44068385,7.45001426 4.44068385,7.35477616 4.53592195,7.25953807 C5.20258861,6.6881095 5.96449337,6.30715712 6.91687433,6.11668093 C8.63116004,5.73572854 10.3454458,6.30715712 11.6787791,7.54525235 C13.0121124,8.87858569 13.4883029,10.5928714 13.1073505,12.3071571 C13.0121124,12.7833476 12.5359219,13.1643 11.9644934,13.0690619 C11.4883029,12.9738238 11.1073505,12.4976333 11.2025886,11.9262047 C11.3930648,10.8785857 11.1073505,9.73572854 10.3454458,8.97382378 C9.4883029,8.11668093 8.34544576,7.83096664 7.29782671,8.02144283 C6.72639814,8.11668093 6.15496956,8.40239521 5.77401718,8.78334759 C5.67877909,8.87858569 5.67877909,8.87858569 5.58354099,8.87858569 L2.82163623,11.6404904 C1.58354099,12.8785857 1.58354099,14.9738238 2.82163623,16.3071571 C4.15496956,17.6404904 6.25020766,17.6404904 7.58354099,16.4023952 L9.01211242,14.9738238 L9.10735052,14.8785857 C9.3930648,14.4976333 10.0597315,14.4023952 10.4406839,14.6881095 C10.8216362,14.9738238 10.9168743,15.6404904 10.63116,16.0214428 L10.3454458,16.3071571 L8.91687433,17.7357285 C7.96449337,18.6881095 6.63116004,19.1643 5.29782671,19.1643 Z" id="Shape"></path>
            </g>
        </g>
    </g>
</svg>