<?xml version="1.0" encoding="UTF-8" standalone="no"?>
<svg width="186px" height="122px" viewBox="0 0 186 122" version="1.1" xmlns="http://www.w3.org/2000/svg" xmlns:xlink="http://www.w3.org/1999/xlink">
    <!-- Generator: Sketch 50.2 (55047) - http://www.bohemiancoding.com/sketch -->
    <title>Group</title>
    <desc>Created with Sketch.</desc>
    <defs></defs>
    <g id="Page-1" stroke="none" stroke-width="1" fill="none" fill-rule="evenodd">
        <g id="KingSumo-PromoPage-(2)-copy_KingSumo-Website-Study-4b-pg1-copy-20" transform="translate(-547.000000, -73.000000)">
            <g id="Group" transform="translate(550.000000, 73.000000)">
                <g transform="translate(53.000000, 19.000000)">
                    <path d="M63,6.7 C59.6,0.6 51.8,-1.6 45.7,1.8 C41.3,4.3 38.7,9 37.3,13.9 C34.5,9.7 30.7,5.9 25.7,4.9 C18.8,3.5 12.1,7.9 10.7,14.8 C9.3,21.7 13.7,28.4 20.6,29.8 L38.9,33.6 C38.9,33.6 38.9,33.6 39,33.6 C39.1,33.6 39.1,33.6 39.2,33.6 C39.3,33.6 39.3,33.6 39.4,33.6 C39.5,33.6 39.5,33.6 39.6,33.6 C39.7,33.6 39.7,33.6 39.8,33.6 C39.9,33.6 39.9,33.6 40,33.6 C40,33.6 40.1,33.6 40.1,33.6 C40.2,33.6 40.3,33.6 40.4,33.6 C40.4,33.6 40.4,33.6 40.4,33.6 C40.4,33.6 40.4,33.6 40.4,33.6 C40.5,33.6 40.6,33.6 40.7,33.5 C40.7,33.5 40.8,33.5 40.8,33.5 C40.9,33.5 40.9,33.5 41,33.4 C41,33.4 41.1,33.4 41.1,33.3 C41.2,33.3 41.2,33.3 41.3,33.2 C41.3,33.2 41.4,33.2 41.4,33.1 C41.5,33.1 41.5,33 41.6,33 C41.6,33 41.6,33 41.7,33 L58,23.9 C64.2,20.6 66.4,12.8 63,6.7 Z M22.2,21.8 C19.7,21.3 18.2,18.9 18.7,16.4 C19.1,14.5 20.6,13.1 22.5,12.8 C23,12.7 23.6,12.7 24.1,12.8 C28.1,13.6 31.4,19.1 33.5,24 L22.2,21.8 Z M54.1,16.8 L44,22.4 C44.5,17.1 46,10.9 49.6,8.8 C51.8,7.6 54.6,8.4 55.8,10.6 C57.1,12.8 56.3,15.6 54.1,16.8 Z" id="Shape" fill="#B9E444" fill-rule="nonzero"></path>
                    <rect id="Rectangle-path" fill="#B9E444" fill-rule="nonzero" transform="translate(44.299265, 58.112095) rotate(-8.771863) translate(-44.299265, -58.112095) " x="10.0993823" y="31.3621868" width="68.3997654" height="53.4998165"></rect>
                    <rect id="Rectangle-path" fill="#77C04E" fill-rule="nonzero" transform="translate(40.659420, 34.818530) rotate(-8.771863) translate(-40.659420, -34.818530) " x="1.10955566" y="27.9685535" width="79.0997287" height="13.699953"></rect>
                    <g transform="translate(25.000000, 44.000000)" id="Shape" stroke="#707584" stroke-linecap="round" stroke-linejoin="round" stroke-width="3.2193">
                        <path d="M1.5,5.4 C8.1,5.5 13.6,10 13.6,10 C7.4,9.8 2.4,11.3 0,12.1"></path>
                        <path d="M33.6,0.4 C27.3,2.5 23.5,8.4 23.5,8.4 C29.4,6.4 34.5,6.3 37.1,6.3"></path>
                    </g>
                    <path d="M57.9,58.3 C53.7,59 50.2,61.8 44.9,62.7 C39.6,63.5 35.5,61.8 31.2,62.5 C27.7,63 26.6,66.5 26.9,68.7 C27.8,74.8 35.5,81.5 47.5,79.7 C59.4,77.9 64.7,69.2 63.8,63.1 C63.5,60.7 61.4,57.7 57.9,58.3 Z" id="Shape" fill="#77C04E" fill-rule="nonzero"></path>
                </g>
                <path d="M15.6,57.2 C15.5,53 12.4,49.4 8.1,48.9 C3.8,48.4 0.7,44.8 0.6,40.6" id="Shape" stroke="#DF641D" stroke-width="5.4944"></path>
                <path d="M20.8,95.8 C20.9,91.6 24,88 28.3,87.5 C32.6,87 35.7,83.4 35.8,79.2" id="Shape" stroke="#77C04E" stroke-width="5.4944"></path>
                <path d="M127,0.5 C126.3,4.6 128.7,8.7 132.8,10 C136.9,11.3 139.3,15.4 138.6,19.5" id="Shape" stroke="#77C04E" stroke-width="5.4944"></path>
                <path d="M31.6,33.2 C38.4,30 43.3,23.7 44.7,16.3" id="Shape" stroke="#B9E444" stroke-width="5.4944"></path>
                <path d="M179.4,25.6 C177.5,32.8 172.2,38.8 165.2,41.5" id="Shape" stroke="#B9E444" stroke-width="5.4944"></path>
                <path d="M159.5,75.1 C164.2,81 171.4,84.3 178.9,83.9" id="Shape" stroke="#DF641D" stroke-width="5.4944"></path>
                <ellipse id="Oval" fill="#E9EDF2" fill-rule="nonzero" cx="99.7" cy="118" rx="29.9" ry="3.1"></ellipse>
            </g>
        </g>
    </g>
</svg>