<?xml version="1.0" encoding="UTF-8" standalone="no"?>
<svg width="23px" height="19px" viewBox="0 0 23 19" version="1.1" xmlns="http://www.w3.org/2000/svg" xmlns:xlink="http://www.w3.org/1999/xlink">
    <!-- Generator: Sketch 50 (54983) - http://www.bohemiancoding.com/sketch -->
    <title>Fill 1</title>
    <desc>Created with Sketch.</desc>
    <defs></defs>
    <g id="Page-1" stroke="none" stroke-width="1" fill="none" fill-rule="evenodd">
        <g id="Artboard-1" fill="#04ABEC">
            <path d="M20.5587,4.6382 C20.5727,4.8412 20.5727,5.0452 20.5727,5.2482 C20.5727,11.4562 15.8487,18.6102 7.2117,18.6102 C4.5507,18.6102 2.0797,17.8392 -0.0003,16.5012 C0.3777,16.5452 0.7427,16.5602 1.1347,16.5602 C3.3297,16.5602 5.3507,15.8182 6.9647,14.5532 C4.8997,14.5102 3.1697,13.1582 2.5747,11.2962 C2.8647,11.3402 3.1557,11.3692 3.4607,11.3692 C3.8827,11.3692 4.3047,11.3112 4.6967,11.2092 C2.5457,10.7732 0.9307,8.8832 0.9307,6.6012 L0.9307,6.5422 C1.5557,6.8912 2.2827,7.1102 3.0537,7.1382 C1.7887,6.2952 0.9607,4.8562 0.9607,3.2282 C0.9607,2.3552 1.1927,1.5552 1.5997,0.8582 C3.9117,3.7072 7.3867,5.5682 11.2827,5.7722 C11.2097,5.4232 11.1657,5.0602 11.1657,4.6962 C11.1657,2.1082 13.2607,-0.0008 15.8627,-0.0008 C17.2147,-0.0008 18.4367,0.5672 19.2937,1.4832 C20.3547,1.2802 21.3727,0.8872 22.2737,0.3492 C21.9247,1.4392 21.1837,2.3552 20.2097,2.9372 C21.1547,2.8352 22.0707,2.5742 22.9137,2.2092 C22.2737,3.1402 21.4747,3.9692 20.5587,4.6382" id="Fill-1"></path>
        </g>
    </g>
</svg>